<?xml version="1.0" standalone="no"?>
<!DOCTYPE svg PUBLIC "-//W3C//DTD SVG 20010904//EN"
 "http://www.w3.org/TR/2001/REC-SVG-20010904/DTD/svg10.dtd">
<svg version="1.0" xmlns="http://www.w3.org/2000/svg"
 width="460.000000pt" height="460.000000pt" viewBox="0 0 460.000000 460.000000"
 preserveAspectRatio="xMidYMid meet">
<metadata>
Created by potrace 1.11, written by Peter Selinger 2001-2013
</metadata>
<g transform="translate(0.000000,460.000000) scale(0.100000,-0.100000)"
fill="#000000" stroke="none">
<path d="M153 4414 c-57 -21 -112 -75 -134 -135 -18 -48 -19 -107 -17 -1997 3
-1796 4 -1950 20 -1982 24 -51 77 -98 134 -118 46 -16 167 -17 1989 -17 l1940
0 45 24 c61 31 88 58 113 111 l22 45 0 1030 0 1030 -29 50 c-37 62 -65 86
-129 106 -59 19 -107 17 -165 -6 -53 -22 -117 -93 -128 -143 -4 -20 -8 -426
-9 -902 -2 -476 -3 -868 -4 -872 0 -5 -750 -8 -1665 -8 -1322 0 -1665 3 -1668
13 -4 10 -3 3303 1 3317 0 3 603 5 1339 5 1265 1 1340 2 1383 19 93 36 155
136 146 233 -8 91 -61 160 -149 198 -32 13 -215 15 -1515 14 -1279 0 -1484 -3
-1520 -15z"/>
<path d="M4315 4121 c-16 -4 -43 -15 -60 -24 -16 -9 -502 -488 -1078 -1065
l-1049 -1049 -489 489 c-310 309 -505 496 -532 511 -140 73 -321 -31 -330
-191 -7 -108 -27 -84 612 -725 322 -323 606 -599 629 -613 54 -32 127 -38 191
-16 41 13 176 146 1197 1166 633 633 1159 1166 1168 1185 10 18 20 57 23 86
17 160 -126 284 -282 246z"/>
</g>
</svg>
