<svg version="1" xmlns="http://www.w3.org/2000/svg" width="613.333" height="613.333" viewBox="0 0 460.000000 460.000000"><path d="M15.3 18.6C9.6 20.7 4.1 26.1 1.9 32.1.1 36.9 0 42.8.2 231.8c.3 179.6.4 195 2 198.2 2.4 5.1 7.7 9.8 13.4 11.8 4.6 1.6 16.7 1.7 198.9 1.7h194l4.5-2.4c6.1-3.1 8.8-5.8 11.3-11.1l2.2-4.5v-206l-2.9-5c-3.7-6.2-6.5-8.6-12.9-10.6-5.9-1.9-10.7-1.7-16.5.6-5.3 2.2-11.7 9.3-12.8 14.3-.4 2-.8 42.6-.9 90.2-.2 47.6-.3 86.8-.4 87.2 0 .5-75 .8-166.5.8-132.2 0-166.5-.3-166.8-1.3-.4-1-.3-330.3.1-331.7 0-.3 60.3-.5 133.9-.5 126.5-.1 134-.2 138.3-1.9 9.3-3.6 15.5-13.6 14.6-23.3-.8-9.1-6.1-16-14.9-19.8-3.2-1.3-21.5-1.5-151.5-1.4-127.9 0-148.4.3-152 1.5z"/><path d="M431.5 47.9c-1.6.4-4.3 1.5-6 2.4-1.6.9-50.2 48.8-107.8 106.5L212.8 261.7l-48.9-48.9c-31-30.9-50.5-49.6-53.2-51.1-14-7.3-32.1 3.1-33 19.1-.7 10.8-2.7 8.4 61.2 72.5 32.2 32.3 60.6 59.9 62.9 61.3 5.4 3.2 12.7 3.8 19.1 1.6 4.1-1.3 17.6-14.6 119.7-116.6C403.9 136.3 456.5 83 457.4 81.1c1-1.8 2-5.7 2.3-8.6 1.7-16-12.6-28.4-28.2-24.6z"/></svg>